Coordinates
version=1
nRows=26
nColumns=18
inDegrees=yes

Units are S.I. units (second, meters, Newtons, ...)
Angles are in degrees.

endheader
time	ground_thorax_rot_x	ground_thorax_rot_y	ground_thorax_rot_z	ground_thorax_tx	ground_thorax_ty	ground_thorax_tz	clav_prot	clav_elev	scapula_abduction	scapula_elevation	scapula_upward_rot	scapula_winging	plane_elv	shoulder_elv	axial_rot	elbow_flexion	pro_sup
      1.15000000	      0.92199021	     -5.03297306	    -10.30534496	     -0.00423131	      0.00403036	     -0.00078352	    -18.39409116	      5.15290671	     -4.62065127	      1.88742330	     18.68142486	      1.75655101	     -9.29482189	     12.66680794	     31.74447516	      0.00000000	     34.32000000
      1.16000000	      0.97853855	     -4.81338926	    -10.25617483	     -0.00423131	      0.00403036	     -0.00078352	    -18.50459366	      5.94248220	     -4.70045768	      2.30826273	     19.33446430	      1.54697749	     -8.46023756	     12.06055733	     32.46160527	      0.00000000	     34.32000000
      1.17000000	      1.06144141	     -4.83312576	    -10.24910190	     -0.00423131	      0.00403036	     -0.00078352	    -18.58274917	      6.71967837	     -4.79703855	      2.74971711	     19.87794276	      1.38132761	     -6.64830675	     11.79233306	     30.63790114	      0.00000000	     34.32000000
      1.18000000	      0.97040048	     -4.85538909	    -10.23766629	     -0.00423131	      0.00403036	     -0.00078352	    -18.79351574	      7.22998594	     -5.08795988	      3.00652977	     20.33439626	      1.26539579	     -5.84738020	     11.16448655	     32.25443373	      0.00000000	     34.32000000
      1.19000000	      0.74626997	     -4.89320457	    -10.23571540	     -0.00423131	      0.00403036	     -0.00078352	    -18.81689905	      7.27658787	     -5.10495237	      3.02338622	     20.40134922	      1.24743561	     -5.82267397	     11.18342204	     32.26235634	      0.00000000	     34.32000000
      1.20000000	      0.94091299	     -4.71077646	    -10.35200576	     -0.00423131	      0.00403036	     -0.00078352	    -19.21873906	      7.76020060	     -5.42410242	      3.13787082	     21.30605951	      1.00626050	     -5.53798576	     10.41899551	     34.63914231	      0.00000000	     34.32000000
      1.21000000	      0.74348157	     -4.50312109	    -10.33210538	     -0.00423131	      0.00403036	     -0.00078352	    -19.21286266	      7.80211366	     -5.37355247	      3.14887149	     21.38888845	      0.97949250	     -5.53822008	     10.51237090	     34.64082553	      0.00000000	     34.32000000
      1.22000000	      0.89977151	     -4.61755620	    -10.28469015	     -0.00423131	      0.00403036	     -0.00078352	    -19.02902407	      8.39288426	     -4.69810286	      3.38846932	     22.24013754	      0.70412427	     -7.00079880	     10.26228928	     34.13052779	      0.00000000	     34.32000000
      1.23000000	      0.85157706	     -4.65512043	    -10.26207575	     -0.00423131	      0.00403036	     -0.00078352	    -19.01224381	      8.76799969	     -4.49621013	      3.55228771	     22.71676148	      0.56354958	     -6.64211976	      9.94435267	     34.31986168	      0.00000000	     34.32000000
      1.24000000	      0.83457926	     -4.72218461	    -10.25065185	     -0.00423131	      0.00403036	     -0.00078352	    -19.09707769	      9.19497938	     -4.40206670	      3.71598183	     23.33445199	      0.39191210	     -6.00512041	      9.35194938	     35.13713030	      0.00000000	     34.32000000
      1.25000000	      0.50468741	     -4.74939281	    -10.18796218	     -0.00423131	      0.00403036	     -0.00078352	    -19.14032545	      9.33201259	     -4.35713322	      3.75311396	     23.59351328	      0.31894985	     -5.83403350	      8.99953425	     35.12520190	      0.00000000	     34.32000000
      1.26000000	      0.25645101	     -4.66049272	    -10.19937175	     -0.00423131	      0.00403036	     -0.00078352	    -19.15258973	      9.40106751	     -4.33589231	      3.77896290	     23.69736338	      0.29024539	     -5.81155115	      9.04098624	     35.12512792	      0.00000000	     34.32000000
      1.27000000	      0.74060752	     -4.65820130	    -10.28741831	     -0.00423131	      0.00403036	     -0.00078352	    -19.47281912	     10.38199128	     -4.47410695	      4.19512720	     24.94351685	     -0.02290470	     -4.68501519	      8.50307407	     33.96739846	      0.00000000	     34.32000000
      1.28000000	      0.77035296	     -4.62718942	    -10.28898691	     -0.00423131	      0.00403036	     -0.00078352	    -19.56220605	     10.80037313	     -4.47302601	      4.38479294	     25.43840329	     -0.14378382	     -3.97515565	      8.46590936	     32.32227933	      0.00000000	     34.32000000
      1.29000000	      0.85983265	     -4.67065540	    -10.35608315	     -0.00423131	      0.00403036	     -0.00078352	    -19.60192247	     11.21430008	     -4.43422917	      4.59161271	     25.85912827	     -0.24086810	     -1.91722492	      8.43418221	     30.20063625	      0.00000000	     34.32000000
      1.30000000	      0.65868797	     -4.71774591	    -10.23603570	     -0.00423131	      0.00403036	     -0.00078352	    -19.52441306	     11.54337076	     -4.03892464	      4.71353916	     26.40200929	     -0.39190760	     -3.06255681	      7.50911272	     32.75210302	      0.00000000	     34.32000000
      1.31000000	      0.73585670	     -4.49923674	    -10.30878160	     -0.00423131	      0.00403036	     -0.00078352	    -19.86293993	     12.15121288	     -4.43855371	      4.98453506	     27.10665394	     -0.53653298	     -0.35053041	      6.89865669	     31.69646291	      0.00000000	     34.32000000
      1.32000000	      0.37270618	     -4.34620177	    -10.21731562	     -0.00423131	      0.00403036	     -0.00078352	    -19.89379599	     12.32159809	     -4.45008034	      5.06978684	     27.27926650	     -0.57214261	     -0.25369481	      6.38012043	     31.71039407	      0.00000000	     34.32000000
      1.33000000	      0.33577385	     -4.15210988	    -10.25546070	     -0.00423131	      0.00403036	     -0.00078352	    -20.15383500	     12.68917540	     -4.71136378	      5.20672717	     27.81390489	     -0.69159890	     -0.02941917	      5.91034043	     31.77810548	      0.00000000	     34.32000000
      1.34000000	      0.56345413	     -3.93652344	    -10.27944856	     -0.00423131	      0.00403036	     -0.00078352	    -20.68602318	     13.18961633	     -5.51267946	      5.41553342	     28.40226104	     -0.80537781	      2.12659422	      5.54142039	     31.80664158	      0.00000000	     34.32000000
      1.35000000	      0.15834636	     -3.52667976	    -10.23831237	     -0.00423131	      0.00403036	     -0.00078352	    -21.06584445	     13.18099130	     -6.17979586	      5.37663214	     28.45153004	     -0.81850949	      1.57584016	      4.83249557	     33.63625662	      0.00000000	     34.32000000
      1.36000000	      0.71248732	     -3.58536704	    -10.46117062	     -0.00423131	      0.00403036	     -0.00078352	    -21.46357825	     13.91604466	     -6.87314304	      5.76763785	     29.03131952	     -0.90974798	      9.66249860	      5.74933879	     22.19873607	      0.00000000	     34.32000000
      1.37000000	      0.55434419	     -3.52084892	    -10.35597974	     -0.00423131	      0.00403036	     -0.00078352	    -21.36680733	     14.03980481	     -6.64716581	      5.83328906	     29.17338314	     -0.93795780	      6.97576106	      4.87422462	     28.94063077	      0.00000000	     34.32000000
      1.38000000	      0.41565377	     -3.41725293	    -10.37886997	     -0.00423131	      0.00403036	     -0.00078352	    -21.35069988	     14.08801806	     -6.62002393	      5.86308786	     29.20416717	     -0.94010861	      6.98350434	      4.88421510	     28.93927377	      0.00000000	     34.32000000
      1.39000000	      0.51382252	     -3.44944651	    -10.34059990	     -0.00423131	      0.00403036	     -0.00078352	    -21.38322423	     14.59236538	     -6.56727906	      6.12373742	     29.70314752	     -1.02746728	      8.16187410	      4.55779445	     27.72466590	      0.00000000	     34.32000000
      1.40000000	      0.27957324	     -3.40106570	    -10.28651643	     -0.00423131	      0.00403036	     -0.00078352	    -21.34454976	     14.72849293	     -6.43057412	      6.18828595	     29.87761294	     -1.06232645	      8.23391738	      4.14234018	     27.70040455	      0.00000000	     34.32000000
